# xmcd
#
# Track frame offsets:
#	180
#	26428
#	50617
#	58181
#	82689
#	95908
#	116902
#	139426
#	148739
#	164992
#
# Disc length: 2419 seconds
#
# Revision: 1
# Processed by: cddbd v1.5.2PL0 Copyright (c) Steve Scherf et al.
# Submitted via: EasyCDDAExtractor 7.1.0.1
#
DISCID=9a09710a
DTITLE=Various Artist - NEGRO PRISON CAMP WORKSONGS
DYEAR=1956
DGENRE=Blues
TTITLE0=Let your hammer ring
TTITLE1=Here, rattler, here
TTITLE2=Chopping in the new ground
TTITLE3=Mighty bright light
TTITLE4=Go down old hannan
TTITLE5=Grizzly bear
TTITLE6=Lost john
TTITLE7=You got to hurry
TTITLE8=I need more power
TTITLE9=We need another witness
EXTD=
EXTT0=
EXTT1=
EXTT2=
EXTT3=
EXTT4=
EXTT5=
EXTT6=
EXTT7=
EXTT8=
EXTT9=
PLAYORDER=
